<?xml version="1.0" encoding="UTF-8" standalone="no"?>
<!DOCTYPE svg PUBLIC "-//W3C//DTD SVG 1.1//EN" "http://www.w3.org/Graphics/SVG/1.1/DTD/svg11.dtd">
<!-- Created with Vectornator (http://vectornator.io/) -->
<svg height="100%" stroke-miterlimit="10" style="fill-rule:nonzero;clip-rule:evenodd;stroke-linecap:round;stroke-linejoin:round;" version="1.1" viewBox="0 0 512 512" width="100%" xml:space="preserve" xmlns="http://www.w3.org/2000/svg" xmlns:xlink="http://www.w3.org/1999/xlink">
<defs/>
<clipPath id="ArtboardFrame">
<rect height="512" width="512" x="0" y="0"/>
</clipPath>
<g clip-path="url(#ArtboardFrame)" id="Untitled">
<path d="M360.929 338.622C360.929 338.622 450.222 333.488 478.352 330.37C515.57 326.244 511.901 313.866 511.901 313.866C511.901 306.645 487.438 266.416 453.19 247.848C425.157 232.651 381.199 218.278 335.767 214.839C297.904 211.973 299.597 158.621 268.668 132.318C256.68 122.122 238.264 118.908 243.506 132.318C248.748 145.728 273.91 203.492 243.506 214.839C213.102 226.186 134.471 230.311 42.21 305.612C42.21 305.612 10.458 293.087 0.273 305.612C-2.522 309.05 17.048 330.369 17.048 330.369C17.048 330.369 0.273 362.001 0.273 379.882C0.273 380.57 35.22 365.441 42.21 338.621C45.161 327.297 129.148 307.828 193.182 322.117C260.98 337.246 302.217 338.621 302.217 338.621" fill="#ff0f00" fill-rule="nonzero" opacity="0.536548" stroke="none"/>
<g opacity="1">
<path d="M436.415 289.109C431.173 278.45 410.554 263.321 369.316 264.352C369.316 264.352 377.004 282.231 394.478 289.109C411.951 295.986 436.415 289.109 436.415 289.109Z" fill="#ff0f00" fill-rule="nonzero" opacity="1" stroke="none"/>
<path d="M347.258 338.622L360.928 338.622C360.928 338.622 450.221 333.488 478.351 330.37C508.134 327.069 511.723 318.497 511.974 315.199C462.876 318.38 394.11 284.6 347.258 338.622Z" fill="#ff0f00" fill-rule="nonzero" opacity="1" stroke="none"/>
</g>
<path d="M305.599 322.553C305.599 322.553 297.325 382.634 302.218 388.135C307.111 393.636 365.86 346.275 369.317 322.117C371.615 306.048 322.102 306.048 305.599 322.553Z" fill="#ff0f00" fill-rule="nonzero" opacity="1" stroke="none"/>
<path d="M273.236 336.055C247.834 306.047 207.704 289.543 181.816 289.543C148.807 289.543 132.303 297.795 157.059 306.047C171.754 310.946 189.324 315.872 202.931 324.224C232.374 330.463 256.291 334.044 273.236 336.055Z" fill="#ff7e76" fill-rule="nonzero" opacity="1" stroke="none"/>
<path d="M239.581 247.1C445.885 222.577 511.973 313.382 511.973 313.382L511.973 313.382C512.036 312.565 511.9 312.06 511.9 312.06C511.9 304.908 487.436 265.06 453.189 246.668C425.156 231.616 381.198 217.378 335.766 213.972C297.903 211.134 299.596 158.286 268.667 132.233C256.679 122.134 238.263 118.95 243.505 132.233C248.747 145.516 273.909 202.732 243.505 213.972C213.101 225.211 134.47 229.298 42.209 303.885C75.899 319.805 91.193 264.738 239.581 247.1Z" fill="#ff0f00" fill-rule="nonzero" opacity="1" stroke="none"/>
</g>
</svg>
