<?xml version="1.0" encoding="UTF-8" standalone="no"?>
<!DOCTYPE svg PUBLIC "-//W3C//DTD SVG 1.1//EN" "http://www.w3.org/Graphics/SVG/1.1/DTD/svg11.dtd">
<!-- Created with Vectornator (http://vectornator.io/) -->
<svg height="100%" stroke-miterlimit="10" style="fill-rule:nonzero;clip-rule:evenodd;stroke-linecap:round;stroke-linejoin:round;" version="1.1" viewBox="0 0 512 512" width="100%" xml:space="preserve" xmlns="http://www.w3.org/2000/svg" xmlns:xlink="http://www.w3.org/1999/xlink">
<defs/>
<g id="Untitled">
<path d="M149.887 222.889C149.887 222.889 149.564 254.535 235.576 146.324C292.65 74.5194 398.115 180.618 398.115 180.618L149.887 222.889Z" fill="#18c253" fill-rule="nonzero" opacity="1" stroke="none"/>
<path d="M264.189 341.145C173.718 316.363 82.09 258.881 82.09 258.881C82.09 258.881 224.611 165.466 339.321 165.466C454.031 165.466 504.34 288.765 504.34 288.765C504.34 288.765 454.032 352.295 339.321 352.295C331.745 352.295 324.094 351.888 316.408 351.127L264.189 341.145Z" fill="#00ff14" fill-rule="nonzero" opacity="1" stroke="none"/>
<path d="M504.341 288.763C504.341 288.763 472.41 210.506 401.422 178.683C384.486 185.85 347.935 228.159 347.037 262.425C346.082 298.868 359.966 331.997 389.661 347.897C468.886 333.518 504.341 288.763 504.341 288.763Z" fill="#00ff14" fill-rule="nonzero" opacity="0.4" stroke="none"/>
<g opacity="1">
<path d="M339.322 319.769C331.746 319.769 324.095 319.362 316.409 318.601L264.189 308.618C204.129 292.166 143.569 261.308 109.635 242.418C92.378 252.273 82.09 259.014 82.09 259.014C82.09 259.014 173.718 316.497 264.188 341.278L316.408 351.261C324.094 352.022 331.745 352.429 339.321 352.429C454.031 352.429 504.34 288.899 504.34 288.899C504.34 288.899 500.775 280.163 493.382 267.345C472.998 285.556 423.502 319.769 339.322 319.769Z" fill="#18c253" fill-rule="nonzero" opacity="0.453298" stroke="none"/>
<path d="M504.341 296.423L451.848 296.423C447.617 296.423 444.189 292.994 444.189 288.764C444.189 284.534 447.617 281.105 451.848 281.105L504.341 281.105C508.572 281.105 512 284.534 512 288.764C512 292.994 508.571 296.423 504.341 296.423Z" fill="#18c253" fill-rule="nonzero" opacity="1" stroke="none"/>
<path d="M347.037 269.059C347.037 269.059 347.091 361.568 264.193 381.819L264.193 289.395C264.193 279.115 272.406 270.718 282.683 270.49L347.037 269.059Z" fill="#18c253" fill-rule="nonzero" opacity="1" stroke="none"/>
<path d="M401.636 255.831C401.636 249.86 406.477 245.019 412.448 245.019C418.419 245.019 423.26 249.86 423.26 255.831C423.26 261.802 418.419 266.643 412.448 266.643C406.477 266.643 401.636 261.802 401.636 255.831Z" fill="#18c253" fill-rule="nonzero" opacity="1" stroke="none"/>
</g>
<path d="M92.303 258.88C92.303 258.88 91.769 227.404 73.69 213.743C55.61 200.081 0 187.516 0 187.516C0 187.516 27.365 240.881 45.444 254.542C45.469 254.56 45.493 254.579 45.518 254.597C48.404 256.764 48.404 260.994 45.518 263.161C45.493 263.179 45.469 263.198 45.444 263.216C27.365 276.879 0 330.244 0 330.244C0 330.244 55.61 317.68 73.69 304.018C91.769 290.355 92.303 258.881 92.303 258.88L92.302 258.88L92.303 258.88Z" fill="#18c253" fill-rule="nonzero" opacity="1" stroke="none"/>
<path d="M91.59 250.904C90.185 261.158 86.017 278.749 73.69 288.065C60.425 298.088 26.957 307.522 10.073 311.834C4.055 322.337 0 330.244 0 330.244C0 330.244 55.61 317.68 73.69 304.018C91.769 290.356 92.303 258.881 92.303 258.881L92.302 258.881L92.303 258.881C92.303 258.88 92.247 255.687 91.59 250.904Z" fill="#00ff14" fill-rule="nonzero" opacity="1" stroke="none"/>
</g>
</svg>
