<?xml version="1.0" encoding="UTF-8" standalone="no"?>
<!DOCTYPE svg PUBLIC "-//W3C//DTD SVG 1.1//EN" "http://www.w3.org/Graphics/SVG/1.1/DTD/svg11.dtd">
<!-- Created with Vectornator (http://vectornator.io/) -->
<svg height="100%" stroke-miterlimit="10" style="fill-rule:nonzero;clip-rule:evenodd;stroke-linecap:round;stroke-linejoin:round;" version="1.1" viewBox="0 0 512 512" width="100%" xml:space="preserve" xmlns="http://www.w3.org/2000/svg" xmlns:xlink="http://www.w3.org/1999/xlink">
<defs/>
<clipPath id="ArtboardFrame">
<rect height="512" width="512" x="0" y="0"/>
</clipPath>
<g clip-path="url(#ArtboardFrame)" id="Untitled">
<path d="M1.38 311.293C4.199 305.312 10.714 302.008 17.205 303.267C50.673 309.756 86.254 326.363 122.959 352.628C151.746 373.226 181.387 399.843 211.059 431.739C211.294 431.992 211.525 432.243 211.759 432.496L111.453 432.496C101.573 421.531 92.161 411.495 83.523 402.545C39.641 357.085 5.597 328.886 5.259 328.608C0.159 324.402-1.438 317.273 1.38 311.293Z" fill="#a0a700" fill-rule="nonzero" opacity="1" stroke="none"/>
<path d="M24.532 203.946C28.534 198.683 35.594 196.806 41.681 199.388C73.067 212.699 104.414 236.346 134.85 269.673C158.721 295.81 182.174 328.012 204.56 365.384C219.16 389.758 231.329 412.996 240.83 432.496L152.276 432.496C130.145 384.513 105.638 341.924 85.889 310.292C52.427 256.696 24.994 222.031 24.722 221.689C20.611 216.514 20.531 209.208 24.532 203.946Z" fill="#bbc400" fill-rule="nonzero" opacity="1" stroke="none"/>
<path d="M80.5021 122.206C85.3931 117.757 92.6761 117.193 98.1931 120.837C126.64 139.625 153.172 168.57 177.054 206.87C195.783 236.907 213.001 272.831 228.229 313.646C247.664 365.737 258.745 411.87 263.222 432.495L178.133 432.495C164.89 357.229 140.598 286.277 121.534 237.925C98.3591 179.144 77.6751 140.074 77.4711 139.689C74.3641 133.854 75.6121 126.654 80.5021 122.206Z" fill="#dae300" fill-rule="nonzero" opacity="1" stroke="none"/>
<path d="M204.684 432.409C204.686 431.897 204.714 431.392 204.768 430.895C209.717 345.544 198.851 259.776 188.847 202.789C177.933 140.613 165.646 98.255 165.524 97.836C163.673 91.507 166.232 84.691 171.74 81.284C177.249 77.876 184.299 78.746 188.865 83.398C212.41 107.382 232.198 140.953 247.679 183.179C259.821 216.296 269.402 254.892 276.157 297.896C287.469 369.909 287.021 429.055 286.979 432.785L204.684 432.409Z" fill="#eef700" fill-rule="nonzero" opacity="1" stroke="none"/>
<path d="M510.62 311.293C507.801 305.312 501.286 302.008 494.795 303.267C461.327 309.756 425.746 326.363 389.041 352.628C360.254 373.226 330.613 399.843 300.941 431.739C300.706 431.992 300.475 432.243 300.241 432.496L400.547 432.496C410.426 421.531 419.839 411.495 428.477 402.545C472.359 357.085 506.403 328.886 506.741 328.608C511.841 324.402 513.438 317.273 510.62 311.293Z" fill="#a0a700" fill-rule="nonzero" opacity="1" stroke="none"/>
<path d="M487.395 203.946C483.393 198.683 476.333 196.806 470.246 199.388C438.86 212.699 407.513 236.346 377.077 269.673C353.206 295.81 329.753 328.012 307.367 365.384C292.767 389.758 280.598 412.996 271.096 432.496L359.65 432.496C381.781 384.513 406.288 341.924 426.037 310.292C459.499 256.696 486.932 222.031 487.204 221.689C491.316 216.514 491.396 209.208 487.395 203.946Z" fill="#c7d000" fill-rule="nonzero" opacity="1" stroke="none"/>
<path d="M431.425 122.206C426.534 117.757 419.251 117.193 413.734 120.837C385.287 139.625 358.755 168.57 334.873 206.87C316.144 236.907 298.926 272.831 283.698 313.646C264.263 365.737 253.182 411.87 248.705 432.495L333.794 432.495C347.037 357.229 371.329 286.277 390.393 237.925C413.568 179.144 434.252 140.074 434.456 139.689C437.564 133.854 436.315 126.654 431.425 122.206Z" fill="#d6df00" fill-rule="nonzero" opacity="1" stroke="none"/>
<path d="M308.875 432.495C308.875 431.983 308.848 431.478 308.797 430.981C304.109 345.608 315.691 259.891 326.251 202.95C337.772 140.825 350.612 98.524 350.739 98.106C352.673 91.785 350.071 84.958 344.423 81.526C338.772 78.092 331.515 78.93 326.797 83.561C302.462 107.437 281.947 140.916 265.822 183.073C253.175 216.134 243.136 254.686 235.985 297.659C224.008 369.62 224.191 428.767 224.215 432.497L308.876 432.497L308.876 432.495L308.875 432.495Z" fill="#f5ff00" fill-rule="nonzero" opacity="1" stroke="none"/>
<g opacity="1">
<path d="M271.167 401.386C266.922 401.386 263.434 397.995 263.336 393.73C262.724 367.171 264.064 338.747 267.322 309.249C267.797 304.949 271.671 301.854 275.972 302.319C280.274 302.794 283.376 306.667 282.902 310.969C279.719 339.779 278.408 367.502 279.006 393.368C279.106 397.695 275.679 401.283 271.352 401.383C271.289 401.385 271.227 401.386 271.167 401.386Z" fill="#d6df00" fill-rule="nonzero" opacity="1" stroke="none"/>
<path d="M279.766 283.426C279.357 283.426 278.944 283.395 278.527 283.328C274.252 282.65 271.338 278.633 272.017 274.359C275.748 250.866 279.223 236.292 279.369 235.683C280.379 231.475 284.609 228.885 288.816 229.891C293.024 230.9 295.618 235.13 294.61 239.338C294.577 239.482 291.123 253.983 287.496 276.817C286.884 280.675 283.553 283.426 279.766 283.426Z" fill="#d6df00" fill-rule="nonzero" opacity="1" stroke="none"/>
</g>
</g>
</svg>
